<svg
  xmlns="http://www.w3.org/2000/svg"
>
  <defs>
    <symbol id="icon-arrow-right" viewBox="0 0 24 24">
      <path
        d="M14.2135 18.1557C14.0686 18.0172 13.9946 17.8432 13.9914 17.6336C13.9882 17.424 14.059 17.2467 14.2039 17.1019L18.5558 12.7499H3.14429C2.93147 12.7499 2.75327 12.6781 2.60969 12.5345C2.46609 12.3909 2.39429 12.2127 2.39429 11.9999C2.39429 11.7871 2.46609 11.6089 2.60969 11.4653C2.75327 11.3217 2.93147 11.25 3.14429 11.25H18.5558L14.2039 6.89798C14.0654 6.75953 13.9946 6.58389 13.9914 6.37108C13.9882 6.15826 14.059 5.98263 14.2039 5.84418C14.3423 5.70571 14.518 5.63647 14.7308 5.63647C14.9436 5.63647 15.1192 5.70571 15.2577 5.84418L20.7808 11.3672C20.8744 11.4608 20.9388 11.5596 20.974 11.6634C21.0093 11.7672 21.0269 11.8794 21.0269 11.9999C21.0269 12.1204 21.0093 12.2342 20.974 12.3413C20.9388 12.4483 20.8744 12.5486 20.7808 12.6422L15.2577 18.1557C15.1192 18.2941 14.9468 18.3634 14.7404 18.3634C14.534 18.3634 14.3584 18.2941 14.2135 18.1557Z"
        fill="currentColor"
      />
    </symbol>

    <symbol id="icon-bars" viewBox="0 0 18 12">
      <path
        fill="currentColor"
        d="M0.99997,11.6347 C0.78747,11.6347 0.60936,11.5628 0.46563,11.419 C0.32188,11.2751 0.25,11.0969 0.25,10.8844 C0.25,10.6718 0.32188,10.4937 0.46563,10.3501 C0.60936,10.2065 0.78747,10.1347 0.99997,10.1347 L17,10.1347 C17.2125,10.1347 17.3906,10.2066 17.5344,10.3504 C17.6781,10.4942 17.75,10.6724 17.75,10.885 C17.75,11.0976 17.6781,11.2757 17.5344,11.4193 C17.3906,11.5629 17.2125,11.6347 17,11.6347 L0.99997,11.6347 Z M0.99997,6.7501 C0.78747,6.7501 0.60936,6.6782 0.46563,6.5344 C0.32188,6.3905 0.25,6.2123 0.25,5.9998 C0.25,5.7872 0.32188,5.6091 0.46563,5.4655 C0.60936,5.3219 0.78747,5.2501 0.99997,5.2501 L17,5.2501 C17.2125,5.2501 17.3906,5.322 17.5344,5.4658 C17.6781,5.6096 17.75,5.7878 17.75,6.0004 C17.75,6.213 17.6781,6.3911 17.5344,6.5347 C17.3906,6.6783 17.2125,6.7501 17,6.7501 L0.99997,6.7501 Z M0.99997,1.86545 C0.78747,1.86545 0.60936,1.79355 0.46563,1.64973 C0.32188,1.50593 0.25,1.32773 0.25,1.11513 C0.25,0.90254 0.32188,0.72446 0.46563,0.58088 C0.60936,0.43728 0.78747,0.36548 0.99997,0.36548 L17,0.36548 C17.2125,0.36548 17.3906,0.43739 17.5344,0.5812 C17.6781,0.72502 17.75,0.90322 17.75,1.1158 C17.75,1.3284 17.6781,1.50649 17.5344,1.65008 C17.3906,1.79366 17.2125,1.86545 17,1.86545 L0.99997,1.86545 Z"
      />
    </symbol>

    <symbol id="icon-circle-phone" viewBox="0 0 25 24">
      <path
        fill="currentColor"
        d="M12.5 0C5.883 0 0.5 5.383 0.5 12C0.5 18.617 5.883 24 12.5 24C19.117 24 24.5 18.617 24.5 12C24.5 5.383 19.117 0 12.5 0ZM9.357 18C8.634 18 7.908 17.739 7.357 17.187L6.835 16.587C6.389 16.141 6.389 15.417 6.835 14.971L8.137 13.971C8.583 13.525 9.307 13.525 9.753 13.971L10.822 14.822C12.893 14.031 14.421 12.566 15.322 10.322L14.471 9.253C14.025 8.807 14.025 8.083 14.471 7.637L15.471 6.335C15.917 5.889 16.641 5.889 17.087 6.335L17.687 6.857C18.239 7.408 18.5 8.134 18.5 8.857C18.5 12.857 13.071 18 9.357 18Z"
      />
    </symbol>

    <symbol
      id="icon-trash"
      viewBox="0 0 20 20"
      fill="currentColor"
    >
      <path
        fillRule="evenodd"
        d="M8.75 1A2.75 2.75 0 0 0 6 3.75v.443c-.795.077-1.584.176-2.365.298a.75.75 0 1 0 .23 1.482l.149-.022.841 10.518A2.75 2.75 0 0 0 7.596 19h4.807a2.75 2.75 0 0 0 2.742-2.53l.841-10.52.149.023a.75.75 0 0 0 .23-1.482A41.03 41.03 0 0 0 14 4.193V3.75A2.75 2.75 0 0 0 11.25 1h-2.5ZM10 4c.84 0 1.673.025 2.5.075V3.75c0-.69-.56-1.25-1.25-1.25h-2.5c-.69 0-1.25.56-1.25 1.25v.325C8.327 4.025 9.16 4 10 4ZM8.58 7.72a.75.75 0 0 0-1.5.06l.3 7.5a.75.75 0 1 0 1.5-.06l-.3-7.5Zm4.34.06a.75.75 0 1 0-1.5-.06l-.3 7.5a.75.75 0 1 0 1.5.06l.3-7.5Z"
        clipRule="evenodd"
      />
    </symbol>

    <symbol
      id="icon-plus"
      viewBox="0 0 20 20"
      fill="currentColor"
    >
      <path
        fillRule="evenodd"
        d="M10 18a8 8 0 1 0 0-16 8 8 0 0 0 0 16Zm.75-11.25a.75.75 0 0 0-1.5 0v2.5h-2.5a.75.75 0 0 0 0 1.5h2.5v2.5a.75.75 0 0 0 1.5 0v-2.5h2.5a.75.75 0 0 0 0-1.5h-2.5v-2.5Z"
        clipRule="evenodd"
      />
    </symbol>
  </defs>
</svg>
